<?xml version="1.0" ?><!DOCTYPE svg  PUBLIC '-//W3C//DTD SVG 1.1//EN'  'http://www.w3.org/Graphics/SVG/1.1/DTD/svg11.dtd'><svg enable-background="new 0 0 512 512" height="512px" id="Layer_1" version="1.1" viewBox="0 0 512 512" width="512px" xml:space="preserve" xmlns="http://www.w3.org/2000/svg" xmlns:xlink="http://www.w3.org/1999/xlink"><g><path d="M437.012,74.968C390.66,28.779,326.733,0,255.997,0C185.26,0,121.334,28.779,74.982,74.968   C28.636,121.312,0,185.356,0,256.078c0,70.566,28.636,134.616,74.982,180.966C121.334,483.377,185.26,512,255.997,512   c70.736,0,134.663-28.623,181.015-74.956C483.358,390.694,512,326.645,512,256.078C512,185.356,483.358,121.312,437.012,74.968z" fill="#007575"/><path clip-rule="evenodd" d="M203.269,175.443h-55.854l32.893,58.099l-44.085,72.696h55.843   l43.944-72.696L203.269,175.443z M316.379,128.963L228.351,283.42l56.706,99.623h59.393l-56.701-99.623l87.893-154.457H316.379z" fill="#FFFFFF" fill-rule="evenodd"/></g></svg>